<svg width="801" height="215" viewBox="0 0 801 215" fill="none" xmlns="http://www.w3.org/2000/svg">
<path d="M231.564 10.083H308.753C309.204 10.083 309.656 9.97465 310.107 9.75781C310.107 9.54096 309.881 9.32408 309.43 9.10724L299.951 5.5293C299.951 5.5293 299.725 5.5293 299.273 5.5293H241.043C240.592 5.5293 240.366 5.5293 240.366 5.5293L230.21 9.10724C230.21 9.32408 230.21 9.54096 230.21 9.75781C230.21 9.97465 230.661 10.083 231.564 10.083Z" fill="#FF3B5B"/>
<path d="M305.37 205.242H190.94L197.711 202.64H298.599H301.984H352.766L359.537 205.242H308.755L318.235 208.494H408.288L415.059 205.242H363.6L354.121 201.664C354.121 201.447 353.895 201.339 353.443 201.339H299.276H295.89H197.034C197.034 201.339 196.809 201.447 196.358 201.664L186.878 205.242H156.409H136.773H124.585H108.335H96.1471H25.0522L2.0312 194.183C1.57981 193.966 1.12833 193.857 0.67693 193.857C0.225533 194.074 0 194.291 0 194.508V205.567C0 205.892 0.676764 206.218 1.35386 206.218H24.3752H98.8557L117.814 213.373H130.002L111.043 206.218H127.294L146.252 213.373H158.44L139.481 206.218H155.732L174.69 213.373C174.69 213.373 174.916 213.373 175.367 213.373H327.037L305.37 205.242Z" fill="#FF3B5B"/>
<path d="M798.289 201.664H682.506C682.054 201.664 681.829 201.664 681.829 201.664L672.349 205.242L649.328 214.024H462.45L438.752 205.242C438.752 205.242 438.526 205.242 438.074 205.242H418.439L409.637 209.47C409.185 209.47 408.959 209.579 408.959 209.796H320.937L330.417 213.374H457.033L461.096 215C461.096 215 461.321 215 461.773 215H649.328C649.779 215 650.005 215 650.005 215L673.704 206.218H798.289C798.966 206.218 799.643 205.892 799.643 205.567V201.989C799.643 201.664 798.966 201.664 798.289 201.664Z" fill="#FF3B5B"/>
<path d="M650.006 204.917H462.451C462 204.917 461.548 205.025 461.097 205.242C461.097 205.459 461.322 205.675 461.774 205.892L471.253 209.47C471.253 209.687 471.479 209.795 471.93 209.795H640.527C640.978 209.795 641.204 209.687 641.204 209.47L650.683 205.892C651.135 205.675 651.36 205.459 651.36 205.242C650.909 205.025 650.458 204.917 650.006 204.917Z" fill="#FF3B5B"/>
<path d="M799.646 8.78211H776.624H640.528L622.247 1.95151H610.059L628.341 8.78211H612.768L593.809 1.95151H581.621L600.58 8.78211H584.329L566.048 1.95151C565.596 1.95151 565.371 1.95151 565.371 1.95151H427.92C427.469 1.95151 427.018 1.95151 426.566 1.95151L408.962 8.78211H333.127L310.106 0C310.106 0 309.88 0 309.429 0H231.563C231.111 0 230.886 0 230.886 0L207.865 8.78211H69.0601L78.5396 5.20417H156.405V4.22841H78.5396C78.0882 4.22841 77.6367 4.22841 77.1853 4.22841L64.9977 8.78211H2.70486C2.02776 8.78211 1.35059 9.10741 1.35059 9.43268V13.0106C1.35059 13.3359 2.02776 13.6611 2.70486 13.6611H198.385C198.837 13.6611 199.288 13.6611 199.74 13.6611L209.219 9.75796L232.24 0.975756H308.752L332.45 9.75796C332.45 9.9748 332.676 10.0831 333.127 10.0831H385.941L392.712 13.6611C393.163 13.6611 393.614 13.6611 394.066 13.6611H489.536C489.988 13.6611 490.213 13.6611 490.213 13.6611L496.984 10.0831H584.329C584.781 10.0831 585.006 10.0831 585.006 10.0831H603.288H603.965H615.476H631.726H643.914H775.947L798.969 21.1423C799.42 21.1423 799.646 21.1423 799.646 21.1423C800.097 21.1423 800.323 21.1423 800.323 21.1423C800.774 21.1423 801 20.9254 801 20.4917V9.43268C801 9.10741 800.323 8.78211 799.646 8.78211Z" fill="#FF3B5B"/>
<path d="M204.48 20.8172H17.6016V40.9836L25.0494 44.5615V128.155L17.6016 131.733V191.256L31.1435 197.762H182.136L191.615 194.184H358.858L369.014 197.762H416.411H415.733H667.613L677.092 194.184H788.136V176.945L780.688 173.367V124.902L788.136 121.324V26.0215L769.854 17.2393H686.571L687.249 17.5645H501.724L495.63 20.4919H387.295L381.202 17.5645H362.243L362.92 17.2393H354.795L355.472 17.5645H213.282L204.48 20.8172Z" fill="#0C0015" fill-opacity="0.5"/>
</svg>
