<svg width="762" height="486" viewBox="0 0 762 486" fill="none" xmlns="http://www.w3.org/2000/svg">
<path d="M220.289 22.792H293.72C294.15 22.792 294.579 22.5471 295.008 22.0569C295.008 21.5668 294.794 21.0765 294.364 20.5863L285.347 12.4985C285.347 12.4985 285.132 12.4985 284.702 12.4985H229.307C228.878 12.4985 228.663 12.4985 228.663 12.4985L219.001 20.5863C219.001 21.0765 219.001 21.5668 219.001 22.0569C219.001 22.5471 219.431 22.792 220.289 22.792Z" fill="#FF3B5B"/>
<path d="M290.501 463.942H181.644L188.085 458.06H284.06H287.281H335.59L342.032 463.942H293.722L302.74 471.295H388.409L394.85 463.942H345.896L336.879 455.855C336.879 455.365 336.664 455.119 336.234 455.119H284.704H281.484H187.441C187.441 455.119 187.226 455.365 186.797 455.855L177.779 463.942H148.793H130.113H118.519H103.06H91.4658H23.8324L1.9323 438.944C1.50289 438.454 1.07339 438.208 0.64397 438.208C0.214552 438.699 0 439.189 0 439.679V464.678C0 465.413 0.643813 466.148 1.28794 466.148H23.1884H94.0425L112.078 482.324H123.672L105.637 466.148H121.096L139.131 482.324H150.726L132.69 466.148H148.149L166.185 482.324C166.185 482.324 166.399 482.324 166.829 482.324H311.114L290.501 463.942Z" fill="#FF3B5B"/>
<path d="M759.421 455.855H649.275C648.846 455.855 648.631 455.855 648.631 455.855L639.613 463.943L617.713 483.794H439.934L417.389 463.943C417.389 463.943 417.174 463.943 416.745 463.943H398.066L389.692 473.501C389.263 473.501 389.048 473.746 389.048 474.236H305.311L314.329 482.324H434.781L438.646 486C438.646 486 438.86 486 439.29 486H617.713C618.142 486 618.357 486 618.357 486L640.902 466.148H759.421C760.065 466.148 760.709 465.413 760.709 464.678V456.59C760.709 455.855 760.065 455.855 759.421 455.855Z" fill="#FF3B5B"/>
<path d="M618.358 463.207H439.935C439.505 463.207 439.076 463.451 438.646 463.942C438.646 464.432 438.861 464.922 439.29 465.412L448.308 473.5C448.308 473.99 448.523 474.235 448.952 474.235H609.34C609.77 474.235 609.984 473.99 609.984 473.5L619.002 465.412C619.432 464.922 619.646 464.432 619.646 463.942C619.217 463.451 618.788 463.207 618.358 463.207Z" fill="#FF3B5B"/>
<path d="M760.711 19.8517H738.811H609.341L591.95 4.41133H580.356L597.747 19.8517H582.932L564.896 4.41133H553.302L571.338 19.8517H555.879L538.487 4.41133C538.058 4.41133 537.843 4.41133 537.843 4.41133H407.085C406.656 4.41133 406.227 4.41133 405.797 4.41133L389.05 19.8517H316.907L295.007 0C295.007 0 294.792 0 294.363 0H220.288C219.859 0 219.644 0 219.644 0L197.744 19.8517H65.6974L74.7154 11.7638H148.79V9.55818H74.7154C74.286 9.55818 73.8565 9.55818 73.427 9.55818L61.8328 19.8517H2.573C1.92887 19.8517 1.28467 20.587 1.28467 21.3222V29.4101C1.28467 30.1453 1.92887 30.8804 2.573 30.8804H188.726C189.155 30.8804 189.585 30.8804 190.014 30.8804L199.032 22.0575L220.932 2.20566H293.719L316.263 22.0575C316.263 22.5477 316.478 22.7926 316.907 22.7926H367.15L373.591 30.8804C374.02 30.8804 374.449 30.8804 374.879 30.8804H465.701C466.13 30.8804 466.345 30.8804 466.345 30.8804L472.786 22.7926H555.879C556.308 22.7926 556.523 22.7926 556.523 22.7926H573.914H574.558H585.509H600.968H612.562H738.167L760.067 47.7913C760.497 47.7913 760.711 47.7913 760.711 47.7913C761.141 47.7913 761.355 47.7913 761.355 47.7913C761.785 47.7913 762 47.3011 762 46.3208V21.3222C762 20.587 761.356 19.8517 760.711 19.8517Z" fill="#FF3B5B"/>
<path d="M194.524 47.0566H16.7446V92.642L23.8299 100.73V289.69L16.7446 297.777V432.328L29.6272 447.033H173.268L182.286 438.945H341.385L351.047 447.033H396.136H395.492H635.107L644.125 438.945H749.762V399.977L742.677 391.889V282.337L749.762 274.249V58.8206L732.37 38.9688H653.143L653.787 39.704H477.296L471.499 46.3213H368.438L362.641 39.704H344.606L345.25 38.9688H337.52L338.165 39.704H202.898L194.524 47.0566Z" fill="#0C0015" fill-opacity="0.5"/>
</svg>
