<svg width="306" height="190" viewBox="0 0 306 190" fill="none" xmlns="http://www.w3.org/2000/svg">
<path d="M88.462 8.91061H117.95C118.122 8.91061 118.295 8.81486 118.467 8.62324C118.467 8.43161 118.381 8.23994 118.209 8.04831L114.587 4.88641C114.587 4.88641 114.501 4.88641 114.329 4.88641H92.0834C91.911 4.88641 91.8248 4.88641 91.8248 4.88641L87.9448 8.04831C87.9448 8.23994 87.9448 8.43161 87.9448 8.62324C87.9448 8.81486 88.1171 8.91061 88.462 8.91061Z" fill="#FF3B5B"/>
<path d="M116.658 181.377H72.9435L75.5301 179.077H114.071H115.365H134.765L137.351 181.377H117.951L121.573 184.251H155.975L158.562 181.377H138.903L135.282 178.215C135.282 178.023 135.196 177.927 135.023 177.927H114.33H113.037H75.2715C75.2715 177.927 75.1854 178.023 75.0129 178.215L71.3915 181.377H59.7516H52.2503H47.5943H41.3864H36.7303H9.57049L0.775964 171.604C0.603521 171.412 0.431046 171.316 0.258602 171.316C0.0861586 171.508 0 171.699 0 171.891V181.664C0 181.951 0.258539 182.239 0.517204 182.239H9.31189H37.7651L45.0077 188.563H49.6636L42.421 182.239H48.629L55.8716 188.563H60.5276L53.285 182.239H59.493L66.7356 188.563C66.7356 188.563 66.8218 188.563 66.9942 188.563H124.935L116.658 181.377Z" fill="#FF3B5B"/>
<path d="M304.964 178.215H260.732C260.56 178.215 260.474 178.215 260.474 178.215L256.852 181.377L248.058 189.138H176.666L167.613 181.377C167.613 181.377 167.526 181.377 167.354 181.377H159.853L156.49 185.113C156.318 185.113 156.231 185.209 156.231 185.401H122.605L126.226 188.563H174.597L176.149 190C176.149 190 176.235 190 176.407 190H248.058C248.23 190 248.316 190 248.316 190L257.37 182.239H304.964C305.223 182.239 305.481 181.951 305.481 181.664V178.502C305.481 178.215 305.223 178.215 304.964 178.215Z" fill="#FF3B5B"/>
<path d="M248.317 181.089H176.667C176.494 181.089 176.322 181.185 176.149 181.376C176.149 181.568 176.236 181.76 176.408 181.951L180.029 185.113C180.029 185.305 180.116 185.401 180.288 185.401H244.696C244.868 185.401 244.954 185.305 244.954 185.113L248.576 181.951C248.748 181.76 248.834 181.568 248.834 181.376C248.662 181.185 248.49 181.089 248.317 181.089Z" fill="#FF3B5B"/>
<path d="M305.483 7.76093H296.688H244.696L237.712 1.72459H233.056L240.04 7.76093H234.091L226.848 1.72459H222.192L229.435 7.76093H223.227L216.243 1.72459C216.071 1.72459 215.984 1.72459 215.984 1.72459H163.475C163.303 1.72459 163.13 1.72459 162.958 1.72459L156.233 7.76093H127.262L118.468 0C118.468 0 118.381 0 118.209 0H88.4623C88.2899 0 88.2037 0 88.2037 0L79.409 7.76093H26.3826L30.004 4.59903H59.7505V3.73673H30.004C29.8316 3.73673 29.6591 3.73673 29.4867 3.73673L24.8307 7.76093H1.03348C0.77481 7.76093 0.516113 8.04841 0.516113 8.33585V11.4978C0.516113 11.7852 0.77481 12.0726 1.03348 12.0726H75.7878C75.9602 12.0726 76.1327 12.0726 76.3052 12.0726L79.9264 8.62331L88.7211 0.862296H117.95L127.003 8.62331C127.003 8.81494 127.09 8.91069 127.262 8.91069H147.438L150.025 12.0726C150.197 12.0726 150.37 12.0726 150.542 12.0726H187.014C187.186 12.0726 187.272 12.0726 187.272 12.0726L189.859 8.91069H223.227C223.399 8.91069 223.486 8.91069 223.486 8.91069H230.47H230.728H235.126H241.334H245.99H296.429L305.224 18.6838C305.396 18.6838 305.483 18.6838 305.483 18.6838C305.655 18.6838 305.741 18.6838 305.741 18.6838C305.914 18.6838 306 18.4922 306 18.1089V8.33585C306 8.04841 305.741 7.76093 305.483 7.76093Z" fill="#FF3B5B"/>
<path d="M78.1157 18.3966H6.72412V36.2181L9.56938 39.38V113.253L6.72412 116.415V169.017L11.8974 174.766H69.5798L73.2011 171.604H137.091L140.971 174.766H159.078H158.819H255.043L258.664 171.604H301.085V156.37L298.24 153.208V110.379L301.085 107.217V22.9958L294.101 15.2347H262.285L262.544 15.5222H191.67L189.342 18.1092H147.955L145.627 15.5222H138.385L138.643 15.2347H135.539L135.798 15.5222H81.4785L78.1157 18.3966Z" fill="#270520"/>
</svg>
