<svg width="26" height="23" viewBox="0 0 26 23" fill="none" xmlns="http://www.w3.org/2000/svg">
<path d="M1.66652 19.01L5.4685 12.3435L4.73934 12.4477L1.354 18.2809L1.66652 19.01Z" fill="#FF0000"/>
<path fill-rule="evenodd" clip-rule="evenodd" d="M1.66732 19.062C1.63259 19.062 1.61521 19.062 1.61521 19.062C1.58049 19.062 1.56314 19.0446 1.56314 19.0099L1.30273 18.3329C1.30273 18.2981 1.30273 18.2808 1.30273 18.2808L4.68807 12.3955C4.68807 12.3955 4.70542 12.3955 4.74014 12.3955L5.4693 12.2393C5.50403 12.2393 5.53875 12.2566 5.57347 12.2913C5.57347 12.3261 5.57347 12.3608 5.57347 12.3955L1.71938 19.062C1.68466 19.062 1.66732 19.062 1.66732 19.062ZM1.45897 18.2808L1.66732 18.8016L5.31306 12.4476L4.79224 12.5518L1.45897 18.2808Z" fill="#FF0000"/>
<path d="M9.94745 6.87488L6.3538 13.1247C5.7809 13.1768 5.46841 13.2289 4.89551 13.3331L9.42663 5.52075C9.63496 6.04157 9.73912 6.35406 9.94745 6.87488Z" fill="#FF0000"/>
<path fill-rule="evenodd" clip-rule="evenodd" d="M4.89553 13.4371C4.8608 13.4371 4.84342 13.4198 4.84342 13.3851C4.8087 13.3503 4.8087 13.3156 4.84342 13.2809L9.37457 5.46859C9.37457 5.43386 9.39192 5.4165 9.42664 5.4165C9.46137 5.4165 9.49609 5.43386 9.53082 5.46859L10.0516 6.8748C10.0516 6.90952 10.0516 6.92688 10.0516 6.92688L6.45799 13.1767C6.42327 13.1767 6.40589 13.1767 6.40589 13.1767L4.89553 13.4371ZM9.42664 5.729L5.05177 13.2288L6.30172 13.0205L9.84333 6.8748L9.42664 5.729Z" fill="#FF0000"/>
<path d="M12.6039 0.052002L8.69775 6.77059L9.47899 6.66642L12.6039 1.19781V0.052002Z" fill="#FF0000"/>
<path fill-rule="evenodd" clip-rule="evenodd" d="M8.69777 6.87483C8.69777 6.87483 8.68039 6.85747 8.64567 6.82275C8.61095 6.82275 8.61095 6.80539 8.64567 6.77067L12.5518 0.0520813C12.5518 0.0173599 12.5866 0 12.656 0C12.6907 0 12.7081 0.0173599 12.7081 0.0520813V1.19789C12.7081 1.23261 12.7081 1.24997 12.7081 1.24997L9.53107 6.71859C9.53107 6.75331 9.51372 6.77067 9.479 6.77067L8.74984 6.87483C8.74984 6.87483 8.73249 6.87483 8.69777 6.87483ZM12.5518 0.416658L8.90608 6.6665L9.37483 6.61442L12.5518 1.19789V0.416658Z" fill="#FF0000"/>
<path d="M7.86475 7.03096L8.95849 5.156C9.27098 5.10392 9.42721 5.05184 9.68762 4.99976L8.17726 7.70802C8.07309 7.44761 7.96891 7.29137 7.86475 7.03096Z" fill="#FF0000"/>
<path fill-rule="evenodd" clip-rule="evenodd" d="M8.12547 7.91651L7.81299 7.03112L8.9067 5.052L9.89627 4.89575L8.12547 7.91651ZM7.96923 7.03112L8.12547 7.55194L9.53169 5.15616L9.01087 5.20824L7.96923 7.03112Z" fill="#FF0000"/>
<path d="M9.32275 4.531L10.0519 4.37475L10.1561 4.21851L9.42689 4.32267L9.32275 4.531Z" fill="#FF0000"/>
<path d="M9.1665 4.63508L9.37485 4.2705L10.3644 4.11426L10.104 4.47883L9.1665 4.63508Z" fill="#FF0000"/>
<path d="M9.7915 3.69799L10.5207 3.59383L10.6248 3.3855L9.89567 3.54175L9.7915 3.69799Z" fill="#FF0000"/>
<path d="M9.63525 3.80207L9.8436 3.43749L10.8331 3.28125L10.5727 3.64582L9.63525 3.80207Z" fill="#FF0000"/>
<path d="M10.2603 2.9165L10.9894 2.76025L11.0936 2.604L10.3644 2.70817L10.2603 2.9165Z" fill="#FF0000"/>
<path d="M10.104 3.02082L10.3123 2.60416L11.3019 2.5L11.0415 2.86457L10.104 3.02082Z" fill="#FF0000"/>
<path d="M4.16682 14.739L4.11475 14.5827L5.57304 14.3744L8.33338 9.53076L8.48963 9.58284L5.67721 14.4786C5.67721 14.5133 5.65983 14.5306 5.62511 14.5306L4.16682 14.739Z" fill="#FF0000"/>
<path d="M5.67727 11.0411L5.521 10.937L6.71891 8.90576L6.87515 8.95784L5.67727 11.0411Z" fill="#FF0000"/>
<path d="M3.12548 17.8119L2.96924 17.7598L4.42753 15.2078L4.58377 15.2598L3.12548 17.8119Z" fill="#FF0000"/>
<path d="M14.2183 2.81226L18.0724 9.42668L18.3328 8.74961L14.9474 2.91642L14.2183 2.81226Z" fill="#FF0000"/>
<path fill-rule="evenodd" clip-rule="evenodd" d="M18.0718 9.53076C18.0371 9.53076 18.0024 9.5134 17.9677 9.47867L14.1657 2.81217C14.131 2.81217 14.131 2.79481 14.1657 2.76009C14.1657 2.72537 14.183 2.70801 14.2178 2.70801L14.9469 2.81217C14.9816 2.81217 15.0164 2.82953 15.0511 2.86426L18.3843 8.69744C18.4191 8.73216 18.4191 8.76688 18.3843 8.80161L18.1239 9.47867C18.1239 9.5134 18.1066 9.53076 18.0718 9.53076ZM14.374 2.91634L18.0197 9.21826L18.2281 8.74953L14.8948 2.96842L14.374 2.91634Z" fill="#FF0000"/>
<path d="M20.5204 16.0412L16.9268 9.84347C17.1351 9.27057 17.2913 9.01016 17.4996 8.43726L22.0308 16.3016C21.4579 16.1975 21.0933 16.1454 20.5204 16.0412Z" fill="#FF0000"/>
<path fill-rule="evenodd" clip-rule="evenodd" d="M22.0306 16.3536C21.9959 16.3536 21.9786 16.3536 21.9786 16.3536L20.5203 16.1453C20.4855 16.1453 20.4682 16.128 20.4682 16.0932L16.8745 9.89547C16.8745 9.86075 16.8745 9.82603 16.8745 9.79131L17.3953 8.43717C17.4301 8.40245 17.4648 8.36773 17.4995 8.33301C17.5342 8.33301 17.5516 8.35037 17.5516 8.38509L22.0827 16.2495C22.0827 16.2842 22.0827 16.3189 22.0827 16.3536C22.048 16.3536 22.0306 16.3536 22.0306 16.3536ZM20.5723 15.9891L21.8223 16.1453L17.4995 8.6455L17.0308 9.84338L20.5723 15.9891Z" fill="#FF0000"/>
<path d="M14.6352 3.59358L12.604 0.052002V1.19781L13.9061 3.48942L14.6352 3.59358Z" fill="#FF0000"/>
<path fill-rule="evenodd" clip-rule="evenodd" d="M14.6349 3.69782L13.9057 3.59366C13.871 3.55894 13.8536 3.54158 13.8536 3.54158L12.5516 1.24997C12.5169 1.24997 12.4995 1.23261 12.4995 1.19789L12.5516 0.0520813C12.5516 0.0173599 12.569 0 12.6037 0C12.6384 0 12.6731 0.0173599 12.7079 0.0520813L14.739 3.54158C14.739 3.5763 14.739 3.61102 14.739 3.64574C14.7043 3.68046 14.6696 3.69782 14.6349 3.69782ZM13.9578 3.38533L14.4786 3.4895L12.7079 0.364573V1.19789L13.9578 3.38533Z" fill="#FF0000"/>
<path d="M25.1553 21.7704L21.2492 14.9998L20.9888 15.7289L24.1137 21.1975L25.1553 21.7704Z" fill="#FF0000"/>
<path fill-rule="evenodd" clip-rule="evenodd" d="M25.156 21.8223C25.1213 21.8223 25.1039 21.8223 25.1039 21.8223L24.1144 21.2494C24.0796 21.2494 24.0623 21.2494 24.0623 21.2494L20.8853 15.7808C20.8853 15.7461 20.8853 15.7114 20.8853 15.6767L21.1457 14.9996C21.1804 14.9649 21.2151 14.9475 21.2498 14.9475C21.2846 14.9475 21.3019 14.9649 21.3019 14.9996L25.2081 21.7182C25.2428 21.7529 25.2428 21.7876 25.2081 21.8223C25.1734 21.8223 25.156 21.8223 25.156 21.8223ZM24.2185 21.1453L24.8956 21.5099L21.2498 15.2079L21.0936 15.7287L24.2185 21.1453Z" fill="#FF0000"/>
<path d="M21.4577 14.1662L22.5514 16.0932C22.4472 16.3536 22.3951 16.5099 22.291 16.7703L20.7285 14.062C21.041 14.1141 21.1973 14.1662 21.4577 14.1662Z" fill="#FF0000"/>
<path fill-rule="evenodd" clip-rule="evenodd" d="M22.291 16.9788L20.5723 13.958L21.5097 14.1143L22.6556 16.0413L22.291 16.9788ZM20.8847 14.2184L22.2389 16.6142L22.4472 16.0934L21.4056 14.3226L20.8847 14.2184Z" fill="#FF0000"/>
<path d="M22.9162 16.718L22.6558 17.3951L22.7599 17.5513L23.0203 16.8743L22.9162 16.718Z" fill="#FF0000"/>
<path d="M22.7601 17.76L22.5518 17.3954L22.9163 16.51L23.1247 16.8746L22.7601 17.76Z" fill="#FF0000"/>
<path d="M23.3849 17.4995L23.1245 18.2287L23.2287 18.3849L23.4891 17.7078L23.3849 17.4995Z" fill="#FF0000"/>
<path d="M23.2283 18.5933L23.02 18.2287L23.3846 17.2913L23.5929 17.7079L23.2283 18.5933Z" fill="#FF0000"/>
<path d="M23.8537 18.3328L23.5933 19.0098L23.6974 19.2182L23.9578 18.489L23.8537 18.3328Z" fill="#FF0000"/>
<path d="M23.6971 19.3747L23.4888 19.0101L23.8534 18.1248L24.0617 18.4893L23.6971 19.3747Z" fill="#FF0000"/>
<path d="M18.9062 13.4373L16.0938 8.54155C16.0938 8.54155 16.0938 8.52419 16.0938 8.48947L16.6146 7.08325L16.8229 7.13533L16.3021 8.48947L19.0624 13.3331L18.9062 13.4373Z" fill="#FF0000"/>
<path d="M20.3121 12.3434L19.1143 10.2601L19.2705 10.208L20.4163 12.2392L20.3121 12.3434Z" fill="#FF0000"/>
<path d="M15.9368 7.18711L14.4785 4.63509L14.6348 4.58301L16.0931 7.13503L15.9368 7.18711Z" fill="#FF0000"/>
<path d="M21.9782 21.7703H14.27L14.7387 22.3432H21.5094L21.9782 21.7703Z" fill="#FF0000"/>
<path fill-rule="evenodd" clip-rule="evenodd" d="M21.5099 22.4472H14.7392C14.7392 22.4472 14.7219 22.4298 14.6872 22.3951L14.2184 21.8222C14.1837 21.8222 14.1837 21.8048 14.2184 21.7701C14.2184 21.7354 14.2358 21.718 14.2705 21.718H21.9787C22.0134 21.718 22.0307 21.7354 22.0307 21.7701C22.0655 21.8048 22.0655 21.8222 22.0307 21.8222L21.562 22.3951C21.5273 22.4298 21.5099 22.4472 21.5099 22.4472ZM14.7913 22.2909H21.4579L21.7703 21.8743H14.4788L14.7913 22.2909Z" fill="#FF0000"/>
<path d="M7.34372 20.6243H14.479C14.8436 21.093 15.0519 21.3534 15.4165 21.7701H6.40625C6.77082 21.3534 6.97915 21.093 7.34372 20.6243Z" fill="#FF0000"/>
<path fill-rule="evenodd" clip-rule="evenodd" d="M15.4161 21.8744H6.40593C6.37121 21.8744 6.33648 21.857 6.30176 21.8223C6.30176 21.7876 6.30176 21.7529 6.30176 21.7182L7.23926 20.5723C7.27398 20.5376 7.30868 20.5203 7.3434 20.5203H14.4787C14.5134 20.5203 14.5481 20.5376 14.5828 20.5723L15.5203 21.7182C15.5203 21.7529 15.5203 21.7876 15.5203 21.8223C15.4856 21.857 15.4509 21.8744 15.4161 21.8744ZM6.56217 21.7182H15.2599L14.4787 20.7286H7.3434L6.56217 21.7182Z" fill="#FF0000"/>
<path d="M21.041 21.7702H25.1555L24.1659 21.1973H21.5097L21.041 21.7702Z" fill="#FF0000"/>
<path fill-rule="evenodd" clip-rule="evenodd" d="M25.155 21.8224H21.0405C21.0058 21.8224 20.9884 21.8051 20.9884 21.7703C20.9537 21.7356 20.9537 21.7182 20.9884 21.7182L21.4572 21.1453C21.4572 21.1106 21.4745 21.0933 21.5093 21.0933H24.1655L25.155 21.6662C25.1897 21.7009 25.2071 21.7356 25.2071 21.7703C25.2071 21.8051 25.1897 21.8224 25.155 21.8224ZM21.2489 21.6662H24.7904L24.1134 21.2495H21.5614L21.2489 21.6662Z" fill="#FF0000"/>
<path d="M0.104492 21.7702H7.86471L7.39599 21.1973H1.09403L0.104492 21.7702Z" fill="#FF0000"/>
<path fill-rule="evenodd" clip-rule="evenodd" d="M7.86439 21.8224H0.104171C0.0347278 21.8224 0 21.8051 0 21.7703C0 21.7356 0.017348 21.7009 0.0520694 21.6662L1.04164 21.0933C1.04164 21.0933 1.05899 21.0933 1.09371 21.0933H7.39567C7.43039 21.0933 7.44774 21.1106 7.44774 21.1453L7.91649 21.7182C7.95121 21.7182 7.95121 21.7356 7.91649 21.7703C7.91649 21.8051 7.89911 21.8224 7.86439 21.8224ZM0.416651 21.6662H7.65608L7.34357 21.2495H1.09371L0.416651 21.6662Z" fill="#FF0000"/>
<path d="M8.48967 22.3432H6.30222C6.09389 22.1348 5.98974 22.0307 5.8335 21.7703H8.95842C8.75009 22.0307 8.64592 22.1348 8.48967 22.3432Z" fill="#FF0000"/>
<path fill-rule="evenodd" clip-rule="evenodd" d="M8.48903 22.4472H6.2495L5.62451 21.718H9.11402L8.48903 22.4472ZM6.30157 22.2388H8.38486L8.74944 21.8743H5.98909L6.30157 22.2388Z" fill="#FF0000"/>
<path d="M5.57257 22.3432L5.10382 21.7703H4.89551L5.36423 22.3432H5.57257Z" fill="#FF0000"/>
<path d="M5.72914 22.4472H5.31249L4.6875 21.718H5.15625L5.72914 22.4472Z" fill="#FF0000"/>
<path d="M4.6351 22.3432L4.16635 21.7703H3.95801L4.42676 22.3432H4.6351Z" fill="#FF0000"/>
<path d="M4.84371 22.4472H4.37499L3.75 21.718H4.21872L4.84371 22.4472Z" fill="#FF0000"/>
<path d="M3.69855 22.3432L3.22983 21.7703H3.02148L3.49024 22.3432H3.69855Z" fill="#FF0000"/>
<path d="M3.90621 22.4472H3.43746L2.8125 21.718H3.28122L3.90621 22.4472Z" fill="#FF0000"/>
<path d="M16.8747 21.8223L15.9893 20.7286H10.4165V20.5203H16.0414C16.0414 20.5203 16.0587 20.5376 16.0935 20.5723L17.0309 21.7182L16.8747 21.8223Z" fill="#FF0000"/>
<path d="M13.0205 22.4473H10.6768V22.291H13.0205V22.4473Z" fill="#FF0000"/>
<path d="M20.2076 21.2495H17.291V21.0933H20.2076V21.2495Z" fill="#FF0000"/>
<path d="M13.6458 14.2703H12.3437L11.5625 13.489V7.60376H12.8646L13.6458 8.38499V14.2703Z" fill="#FF0000"/>
<path d="M13.6458 18.437H12.3437L11.5625 17.6557V16.4058H13.6458V18.437Z" fill="#FF0000"/>
</svg>
