<svg width="868" height="714" viewBox="0 0 868 714" fill="none" xmlns="http://www.w3.org/2000/svg">
<rect x="12.1602" y="48" width="841.258" height="634" rx="33" fill="#0C0015" fill-opacity="0.5"/>
<path d="M223.09 28.5773V26.4075H479.669L495.782 0.858765H847.537L867.576 32.6998V305.708H866.211V33.5677L846.957 3.02851H496.328L480.249 28.5773H223.09Z" fill="#FF3B5B"/>
<path d="M6.10352e-05 680.043V57.3264L0.204834 57.0009L35.5716 0.858765H462.601V3.02851H36.1519L1.36554 58.2485V679.176L21.9506 711.83H716.483L735.839 681.074H850.337L865.153 657.532V357.457H866.519V658.455L850.918 683.244H736.42L717.029 714H21.3702L6.10352e-05 680.043Z" fill="#FF3B5B"/>
<g opacity="0.5">
<path fill-rule="evenodd" clip-rule="evenodd" d="M13.3481 668.032V64.8421L45.1304 14.3413H175.502L194.961 45.3144H493.564L508.994 20.7963H838.731L854.093 45.2059V45.4229L853.615 636.516L840.301 657.617H729.49L706.447 694.285H29.8708L13.3481 668.032ZM14.0309 65.2761V667.598L30.1439 693.146H706.14L729.183 656.532H840.028L852.898 636.028L853.41 45.6399L838.458 21.8269H509.267L493.837 46.3451H194.688L175.195 15.4262H45.4035L14.0309 65.2761Z" fill="#FF3B5B"/>
</g>
</svg>
