<svg width="868" height="1286" viewBox="0 0 868 1286" fill="none" xmlns="http://www.w3.org/2000/svg">
<rect x="12.1602" y="84.9846" width="841.258" height="1142.95" rx="33" fill="#0C0015" fill-opacity="0.5"/>
<path d="M223.09 49.97V46.0584H479.669L495.782 0H847.537L867.576 57.4019V549.572H866.211V58.9665L846.957 3.91154H496.328L480.249 49.97H223.09Z" fill="#FF3B5B"/>
<path d="M4.57928e-05 1224.41V101.798L0.204822 101.211L35.5716 0H462.601V3.91154H36.1519L1.36556 103.46V1222.85L21.9506 1281.71H716.483L735.839 1226.27H850.337L865.153 1183.83V642.862H866.519V1185.49L850.918 1230.18H736.42L717.029 1285.63H21.3702L4.57928e-05 1224.41Z" fill="#FF3B5B"/>
<g opacity="0.5">
<path fill-rule="evenodd" clip-rule="evenodd" d="M13.3481 1202.76V115.347L45.1304 24.3059H175.502L194.961 80.1431H493.564L508.994 35.9427H838.731L854.093 79.9476V80.3387L853.615 1145.94L840.301 1183.98H729.49L706.447 1250.09H29.8708L13.3481 1202.76ZM14.0309 116.129V1201.97L30.1439 1248.03H706.14L729.183 1182.02H840.028L852.898 1145.06L853.41 80.7299L838.458 37.8007H509.267L493.837 82.0012H194.688L175.195 26.2617H45.4035L14.0309 116.129Z" fill="#FF3B5B"/>
</g>
</svg>
