<svg width="868" height="1124" viewBox="0 0 868 1124" fill="none" xmlns="http://www.w3.org/2000/svg">
<rect x="12.1602" y="74.3005" width="841.258" height="999.263" rx="33" fill="#0C0015" fill-opacity="0.5"/>
<path d="M223.09 43.6879V40.2681H479.669L495.782 0H847.537L867.576 50.1855V480.481H866.211V51.5534L846.957 3.41979H496.328L480.249 43.6879H223.09Z" fill="#FF3B5B"/>
<path d="M4.57928e-05 1070.48V89.0001L0.204822 88.4871L35.5716 0H462.601V3.41979H36.1519L1.36556 90.4535V1069.11L21.9506 1120.58H716.483L735.839 1072.1H850.337L865.153 1035V562.043H866.519V1036.45L850.918 1075.52H736.42L717.029 1124H21.3702L4.57928e-05 1070.48Z" fill="#FF3B5B"/>
<g opacity="0.5">
<path fill-rule="evenodd" clip-rule="evenodd" d="M13.3481 1051.55V100.846L45.1304 21.2502H175.502L194.961 70.0677H493.564L508.994 31.4241H838.731L854.093 69.8968V70.2387L853.615 1001.88L840.301 1035.13H729.49L706.447 1092.93H29.8708L13.3481 1051.55ZM14.0309 101.53V1050.86L30.1439 1091.13H706.14L729.183 1033.42H840.028L852.898 1001.11L853.41 70.5807L838.458 33.0485H509.267L493.837 71.6922H194.688L175.195 22.9601H45.4035L14.0309 101.53Z" fill="#FF3B5B"/>
</g>
</svg>
