<svg width="354" height="971" viewBox="0 0 354 971" fill="none" xmlns="http://www.w3.org/2000/svg">
<rect x="6" y="41.8384" width="340" height="849.843" rx="15" fill="#0C0015" fill-opacity="0.5"/>
<path d="M91 16.6432V15.3404H195.704L202.279 0H345.823L354 19.1186V183.043H353.443V19.6397L345.586 1.3028H202.502L195.941 16.6432H91Z" fill="#FF3B5B"/>
<path d="M-3.05176e-05 924.765V76.8853L0.0835266 76.4422L14.5144 0H188.757V2.95429H14.7512L0.557159 78.1409V923.584L8.95651 968.046H292.349L300.247 926.169H346.966L353.012 894.115V485.537H353.569V895.37L347.203 929.123H300.484L292.572 971H8.71973L-3.05176e-05 924.765Z" fill="#FF3B5B"/>
<path fill-rule="evenodd" clip-rule="evenodd" d="M5.44681 908.41V87.1186L18.4151 18.3576H71.6113L75.4627 40.884H197.303L207.687 27.1466H342.231L348.499 60.3823V60.6777L348.304 865.499L342.872 894.229H297.657L288.255 944.157H12.1887L5.44681 908.41ZM5.7254 87.7094V907.819L12.3 942.606H288.129L297.532 892.752H342.76L348.011 864.834L348.22 60.9731L342.119 28.5499H207.799L197.303 42.2742H139.5H74.5L70.5 19.8347H18.5265L5.7254 87.7094Z" fill="#FF3B5B"/>
</svg>
