<svg width="354" height="820" viewBox="0 0 354 820" fill="none" xmlns="http://www.w3.org/2000/svg">
<rect x="5.80078" y="52.316" width="339.908" height="700.929" rx="15" fill="#0C0015" fill-opacity="0.5"/>
<path d="M91.0277 31.8719V29.3771H195.721L202.295 0H345.823L354 36.6122V350.529H353.443V37.6101L345.587 2.49487H202.518L195.958 31.8719H91.0277Z" fill="#FF3B5B"/>
<path d="M-3.05176e-05 780.955V64.9289L0.0835266 64.5547L14.5144 0H188.757V2.49487H14.7512L0.557159 65.9892V779.957L8.95651 817.505H292.349L300.247 782.141H346.966L353.012 755.071V410.031H353.569V756.132L347.203 784.635H300.484L292.572 820H8.71973L-3.05176e-05 780.955Z" fill="#FF3B5B"/>
<path fill-rule="evenodd" clip-rule="evenodd" d="M5.44681 767.143V73.5708L18.4151 15.5028H71.6113L79.551 51.117H201.391L207.687 22.925H342.231L348.499 50.9923V51.2417L348.304 730.906L342.872 755.168H297.657L288.255 797.331H12.1887L5.44681 767.143ZM5.7254 74.0698V766.645L12.3 796.021H288.129L297.532 753.921H342.76L348.011 730.344L348.22 51.4912L342.119 24.1101H207.799L201.503 52.3021H79.4395L71.4859 16.7502H18.5265L5.7254 74.0698Z" fill="#FF3B5B"/>
</svg>
