<svg width="430" height="124" viewBox="0 0 430 124" fill="none" xmlns="http://www.w3.org/2000/svg">
<path d="M429.73 102.441V91.828C428.656 90.9051 427.85 90.4437 426.776 89.29V104.979C427.85 103.826 428.656 103.364 429.73 102.441Z" fill="#FF3B5B"/>
<path fill-rule="evenodd" clip-rule="evenodd" d="M426.777 105.211C426.777 105.211 426.687 105.211 426.508 105.211C426.329 105.211 426.24 105.134 426.24 104.98V89.2909C426.24 89.1371 426.329 89.0602 426.508 89.0602C426.687 88.9064 426.866 88.9064 427.046 89.0602L430 91.5982C430 91.5982 430 91.6751 430 91.8289V102.442C430 102.442 430 102.519 430 102.673L427.046 105.211C427.046 105.211 426.956 105.211 426.777 105.211ZM427.314 90.2138V103.827L429.194 102.212V92.0596L427.314 90.2138Z" fill="#FF3B5B"/>
<path d="M429.73 87.9067L426.776 85.5994V84.4458L429.73 86.9838V87.9067Z" fill="#FF3B5B"/>
<path fill-rule="evenodd" clip-rule="evenodd" d="M430 88.8292L426.24 85.599V83.5225L430 86.7527V88.8292Z" fill="#FF3B5B"/>
<path d="M429.73 83.0613L426.776 80.5233V79.3696L429.73 81.9076V83.0613Z" fill="#FF3B5B"/>
<path fill-rule="evenodd" clip-rule="evenodd" d="M430 83.9837L426.24 80.7536V78.4463L430 81.6765V83.9837Z" fill="#FF3B5B"/>
<path d="M412.274 45.6829V77.9847L415.229 80.5227V87.2138H15.0415V80.5227L17.9959 77.9847V45.6829L15.0415 43.1449V36.6846H415.229V43.1449L412.274 45.6829Z" fill="#270021"/>
<path fill-rule="evenodd" clip-rule="evenodd" d="M420.868 116.055H9.40094C9.13235 116.055 8.86377 115.824 8.86377 115.593V8.07473C8.86377 7.844 9.13235 7.61328 9.40094 7.61328H420.868C421.137 7.61328 421.406 7.844 421.406 8.07473V115.593C421.406 115.824 421.137 116.055 420.868 116.055ZM9.66951 115.363H420.6V8.53617H9.66951V115.363Z" fill="#FF3B5B"/>
<path d="M23.3676 31.6086H15.0415V24.4561L23.3676 31.6086Z" fill="#FF3B5B"/>
<path d="M39.75 31.6095H31.424L15.5776 17.9966H23.9037L39.75 31.6095Z" fill="#FF3B5B"/>
<path d="M56.1348 31.6095H48.0773L31.9624 17.9966H40.2885L56.1348 31.6095Z" fill="#FF3B5B"/>
<path d="M72.5161 31.6095H64.4586L48.6123 17.9966H56.6698L72.5161 31.6095Z" fill="#FF3B5B"/>
<path d="M89.1686 31.6097H80.8425L63.9219 17.0739L67.9506 13.3823L89.1686 31.6097Z" fill="#FF3B5B"/>
<path d="M105.552 31.6093L83.7967 12.9204H75.7393L97.2258 31.6093H105.552Z" fill="#FF3B5B"/>
<path d="M121.937 31.6093L100.451 12.9204H92.1245L113.611 31.6093H121.937Z" fill="#FF3B5B"/>
<path d="M138.321 31.6093L116.834 12.9204H108.508L130.263 31.6093H138.321Z" fill="#FF3B5B"/>
<path d="M154.703 31.6093L133.217 12.9204H124.891L146.646 31.6093H154.703Z" fill="#FF3B5B"/>
<path d="M171.356 31.6093L149.601 12.9204H141.543L163.03 31.6093H171.356Z" fill="#FF3B5B"/>
<path d="M187.74 31.6093L165.985 12.9204H157.927L179.414 31.6093H187.74Z" fill="#FF3B5B"/>
<path d="M204.122 31.6093L182.636 12.9204H174.31L195.796 31.6093H204.122Z" fill="#FF3B5B"/>
<path d="M220.506 31.6093L199.02 12.9204H190.694L212.449 31.6093H220.506Z" fill="#FF3B5B"/>
<path d="M236.889 31.6093L215.402 12.9204H207.076L228.831 31.6093H236.889Z" fill="#FF3B5B"/>
<path d="M253.541 31.6093L232.055 12.9204H223.729L245.484 31.6093H253.541Z" fill="#FF3B5B"/>
<path d="M270.193 31.6093L248.707 12.9204H240.381L262.136 31.6093H270.193Z" fill="#FF3B5B"/>
<path d="M286.846 31.6093L265.36 12.9204H257.034L278.789 31.6093H286.846Z" fill="#FF3B5B"/>
<path d="M303.498 31.6089H295.441L276.64 15.458H284.966L303.498 31.6089Z" fill="#FF3B5B"/>
<path d="M320.151 31.6089H312.093L293.292 15.458H301.619L320.151 31.6089Z" fill="#FF3B5B"/>
<path d="M336.803 31.6089H328.746L309.945 15.458H318.271L336.803 31.6089Z" fill="#FF3B5B"/>
<path d="M353.453 31.6089H345.395L326.595 15.458H334.921L353.453 31.6089Z" fill="#FF3B5B"/>
<path d="M370.106 31.6089H362.048L343.248 15.458H351.574L370.106 31.6089Z" fill="#FF3B5B"/>
<path d="M386.759 31.6093L365.273 12.9204H356.947L378.702 31.6093H386.759Z" fill="#FF3B5B"/>
<path d="M403.409 31.6093L381.923 12.9204H373.597L395.352 31.6093H403.409Z" fill="#FF3B5B"/>
<path d="M415.227 27.2255V31.6093H412.004L390.249 12.9204H398.575L415.227 27.2255Z" fill="#FF3B5B"/>
<path d="M415.228 12.9204V20.0729L406.902 12.9204H415.228Z" fill="#FF3B5B"/>
<path d="M23.3676 110.748H15.0415V103.596L23.3676 110.748Z" fill="#FF3B5B"/>
<path d="M39.751 110.748H31.425L15.0415 96.6736V92.0591H17.9959L39.751 110.748Z" fill="#FF3B5B"/>
<path d="M56.1334 110.748L34.6468 92.0591H26.3208L48.0759 110.748H56.1334Z" fill="#FF3B5B"/>
<path d="M72.5172 110.748L51.0306 92.0591H42.7046L64.4597 110.748H72.5172Z" fill="#FF3B5B"/>
<path d="M86.2161 108.21H77.8901L59.0894 92.0591H67.4154L86.2161 108.21Z" fill="#FF3B5B"/>
<path d="M102.597 108.21H94.2714L75.7393 92.0591H83.7967L102.597 108.21Z" fill="#FF3B5B"/>
<path d="M118.983 108.21H110.925L92.1245 92.0591H100.451L118.983 108.21Z" fill="#FF3B5B"/>
<path d="M135.366 108.21H127.309L108.508 92.0591H116.834L135.366 108.21Z" fill="#FF3B5B"/>
<path d="M152.017 108.21H143.691L124.891 92.0591H133.217L152.017 108.21Z" fill="#FF3B5B"/>
<path d="M171.356 110.748L149.601 92.0591H141.543L163.03 110.748H171.356Z" fill="#FF3B5B"/>
<path d="M187.74 110.748L165.985 92.0591H157.927L179.414 110.748H187.74Z" fill="#FF3B5B"/>
<path d="M204.122 110.748L182.636 92.0591H174.31L195.796 110.748H204.122Z" fill="#FF3B5B"/>
<path d="M220.506 110.748L199.02 92.0591H190.694L212.449 110.748H220.506Z" fill="#FF3B5B"/>
<path d="M236.889 110.748L215.402 92.0591H207.076L228.831 110.748H236.889Z" fill="#FF3B5B"/>
<path d="M253.541 110.748L232.055 92.0591H223.729L245.484 110.748H253.541Z" fill="#FF3B5B"/>
<path d="M270.193 110.748L248.707 92.0591H240.381L262.136 110.748H270.193Z" fill="#FF3B5B"/>
<path d="M286.846 110.748L265.36 92.0591H257.034L278.789 110.748H286.846Z" fill="#FF3B5B"/>
<path d="M303.499 110.748L282.012 92.0591H273.686L295.441 110.748H303.499Z" fill="#FF3B5B"/>
<path d="M320.149 110.748L298.662 92.0591H290.336L312.091 110.748H320.149Z" fill="#FF3B5B"/>
<path d="M336.801 110.747L315.314 92.0586H306.988L328.743 110.747H336.801Z" fill="#FF3B5B"/>
<path d="M353.454 110.748L331.967 92.0591H323.641L345.396 110.748H353.454Z" fill="#FF3B5B"/>
<path d="M366.078 107.056L361.781 110.748L340.294 92.0591H348.62L366.078 107.056Z" fill="#FF3B5B"/>
<path d="M381.119 105.903H372.793L356.947 92.0591H365.273L381.119 105.903Z" fill="#FF3B5B"/>
<path d="M397.769 105.903H389.443L373.597 92.0591H381.923L397.769 105.903Z" fill="#FF3B5B"/>
<path d="M414.421 105.903H406.095L390.249 92.0591H398.575L414.421 105.903Z" fill="#FF3B5B"/>
<path d="M415.228 92.0591V99.2116L406.902 92.0591H415.228Z" fill="#FF3B5B"/>
<path d="M123.548 8.07414L120.594 5.53613H50.4939L47.8081 8.07414H123.548Z" fill="#FF3B5B"/>
<path fill-rule="evenodd" clip-rule="evenodd" d="M47.8067 8.53659C47.6276 8.38277 47.4486 8.30588 47.2695 8.30588C47.2695 7.99824 47.2695 7.8444 47.2695 7.8444L50.2239 5.30642C50.403 5.15261 50.4925 5.07568 50.4925 5.07568H120.592C120.592 5.07568 120.682 5.15261 120.861 5.30642L123.815 7.8444C123.815 7.8444 123.815 7.99824 123.815 8.30588C123.815 8.30588 123.726 8.38277 123.547 8.53659H47.8067ZM50.7611 5.99861L48.881 7.61369H122.472L120.324 5.99861H50.7611Z" fill="#FF3B5B"/>
<path d="M166.252 8.07501L160.611 2.99902H116.833L110.924 8.07501H166.252Z" fill="#FF3B5B"/>
<path fill-rule="evenodd" clip-rule="evenodd" d="M110.925 8.53599C110.746 8.38217 110.567 8.30528 110.388 8.30528C110.388 7.99764 110.477 7.8438 110.656 7.8438L116.296 2.76782C116.476 2.614 116.655 2.53711 116.834 2.53711L160.613 2.76782C160.613 2.76782 160.702 2.76782 160.881 2.76782L166.79 7.8438C166.79 7.8438 166.79 7.99764 166.79 8.30528C166.611 8.30528 166.432 8.38217 166.253 8.53599H110.925ZM117.102 3.46L111.999 7.61309H165.447L160.613 3.46H117.102Z" fill="#FF3B5B"/>
<path d="M420.867 8.07501V2.99902H294.902L288.994 8.07501H420.867Z" fill="#FF3B5B"/>
<path fill-rule="evenodd" clip-rule="evenodd" d="M288.994 8.53599C288.815 8.38217 288.725 8.30528 288.725 8.30528C288.725 7.99764 288.725 7.8438 288.725 7.8438L294.634 2.76782C294.813 2.614 294.902 2.53711 294.902 2.53711L420.867 2.76782C421.136 2.76782 421.405 2.76783 421.405 2.99856V8.07454C421.405 8.22836 421.315 8.30528 421.136 8.30528C421.136 8.4591 421.046 8.53599 420.867 8.53599H288.994ZM295.171 3.46L290.068 7.61309H420.33V3.46H295.171Z" fill="#FF3B5B"/>
<path d="M306.721 115.594L309.675 118.132H379.506L382.461 115.594H306.721Z" fill="#FF3B5B"/>
<path fill-rule="evenodd" clip-rule="evenodd" d="M309.675 118.593C309.496 118.593 309.406 118.516 309.406 118.362L306.452 116.055C306.273 115.901 306.273 115.747 306.452 115.594C306.452 115.44 306.541 115.363 306.72 115.363H382.46C382.639 115.363 382.818 115.44 382.998 115.594C382.998 115.747 382.908 115.901 382.729 116.055L380.043 118.362C379.864 118.516 379.685 118.593 379.506 118.593H309.675ZM308.063 116.055L309.943 117.901H379.506L381.655 116.055H308.063Z" fill="#FF3B5B"/>
<path d="M40.2876 120.67L43.242 123.208H69.2945L72.2488 120.67H40.2876Z" fill="#FF3B5B"/>
<path fill-rule="evenodd" clip-rule="evenodd" d="M43.243 123.669C43.064 123.669 42.8849 123.592 42.7059 123.438L40.02 121.131C39.841 120.977 39.7515 120.823 39.7515 120.669C39.9305 120.515 40.1096 120.438 40.2886 120.438H72.2499C72.4289 120.438 72.5185 120.515 72.5185 120.669C72.5185 120.823 72.5185 120.977 72.5185 121.131L69.5641 123.438C69.385 123.592 69.2955 123.669 69.2955 123.669H43.243ZM41.363 121.131L43.243 122.976H69.0269L71.1756 121.131H41.363Z" fill="#FF3B5B"/>
<path d="M382.194 2.99846L379.239 0.460449H353.187L350.232 2.99846H382.194Z" fill="#FF3B5B"/>
<path fill-rule="evenodd" clip-rule="evenodd" d="M350.232 3.4609C350.053 3.4609 349.963 3.38398 349.963 3.23016C349.784 3.07634 349.784 2.92253 349.963 2.76871L352.918 0.230741C352.918 0.076923 353.007 0 353.186 0H379.239C379.418 0 379.597 0.076923 379.776 0.230741L382.462 2.76871C382.641 2.92253 382.73 3.07634 382.73 3.23016C382.551 3.38398 382.372 3.4609 382.193 3.4609H350.232ZM353.455 0.922893L351.306 2.53801H381.119L379.239 0.922893H353.455Z" fill="#FF3B5B"/>
<path d="M420.869 23.0723L423.823 20.5342V5.537L420.869 2.99902V23.0723Z" fill="#FF3B5B"/>
<path fill-rule="evenodd" clip-rule="evenodd" d="M420.869 23.3024C420.69 23.3024 420.601 23.2255 420.601 23.0717V2.99845C420.601 2.84463 420.69 2.76771 420.869 2.76771C421.048 2.61389 421.138 2.61389 421.138 2.76771L424.092 5.30572C424.271 5.30572 424.361 5.3826 424.361 5.53642V20.5337C424.361 20.6875 424.271 20.7644 424.092 20.7644L421.138 23.3024C421.138 23.3024 421.048 23.3024 420.869 23.3024ZM421.406 3.92134V22.1488L423.286 20.303V5.76716L421.406 3.92134Z" fill="#FF3B5B"/>
<path d="M9.3999 115.594V120.67H135.365L141.005 115.594H9.3999Z" fill="#FF3B5B"/>
<path fill-rule="evenodd" clip-rule="evenodd" d="M135.366 121.131H9.40094C9.13235 121.131 8.86377 120.9 8.86377 120.67V115.594C8.86377 115.594 8.86377 115.517 8.86377 115.363C9.04282 115.363 9.22188 115.363 9.40094 115.363H141.006C141.185 115.363 141.364 115.44 141.543 115.594C141.543 115.747 141.454 115.901 141.275 116.055L135.634 120.9C135.455 121.054 135.366 121.131 135.366 121.131ZM9.66951 120.208L135.097 120.439L139.932 116.055H9.66951V120.208Z" fill="#FF3B5B"/>
<path d="M9.4002 100.597L6.4458 103.135V118.132L9.4002 120.67V100.597Z" fill="#FF3B5B"/>
<path fill-rule="evenodd" clip-rule="evenodd" d="M9.40221 121.131C9.22316 121.131 9.0441 121.054 8.86505 120.9L6.17923 118.593C6.00017 118.439 5.91064 118.285 5.91064 118.131V103.134C5.91064 103.134 6.00017 103.057 6.17923 102.903L8.86505 100.365C9.0441 100.365 9.22316 100.365 9.40221 100.365C9.58127 100.365 9.67079 100.442 9.67079 100.596V120.669C9.67079 120.823 9.58127 120.977 9.40221 121.131ZM6.71639 118.131L8.86505 119.746V101.75L6.71639 103.365V118.131Z" fill="#FF3B5B"/>
<path d="M263.748 115.594L269.656 120.67H313.435L319.344 115.594H263.748Z" fill="#FF3B5B"/>
<path fill-rule="evenodd" clip-rule="evenodd" d="M313.435 121.131H269.656C269.477 121.131 269.387 121.054 269.387 120.9L263.479 116.055C263.299 115.901 263.299 115.747 263.479 115.594C263.479 115.44 263.568 115.363 263.747 115.363H319.344C319.523 115.363 319.612 115.44 319.612 115.594C319.791 115.747 319.791 115.901 319.612 116.055L313.703 120.9C313.703 121.054 313.614 121.131 313.435 121.131ZM269.924 120.208L313.166 120.439L318.269 116.055H264.821L269.924 120.208Z" fill="#FF3B5B"/>
<path d="M63.3865 8.07471L59.6263 11.3049H3.49268V8.07471H63.3865Z" fill="#FF3B5B"/>
<path fill-rule="evenodd" clip-rule="evenodd" d="M59.6249 11.7664H3.49127C3.31221 11.7664 3.22268 11.6894 3.22268 11.5356C3.04363 11.5356 2.9541 11.4587 2.9541 11.3049V8.07473C2.9541 7.844 3.22269 7.61328 3.49127 7.61328H63.385C63.5641 7.61328 63.6536 7.69017 63.6536 7.84399C63.8327 7.9978 63.8327 8.15165 63.6536 8.30547L59.8935 11.5356C59.7144 11.6894 59.6249 11.7664 59.6249 11.7664ZM4.02843 11.0742H59.3563L62.3107 8.53617H4.02843V11.0742Z" fill="#FF3B5B"/>
<path d="M426.776 112.364H370.642L366.882 115.594H426.776V112.364Z" fill="#FF3B5B"/>
<path fill-rule="evenodd" clip-rule="evenodd" d="M426.778 116.055H366.884C366.705 116.055 366.526 115.978 366.347 115.824C366.347 115.67 366.436 115.517 366.615 115.363L370.375 112.133C370.375 111.979 370.465 111.902 370.644 111.902H426.778C426.778 111.902 426.867 111.979 427.046 112.133C427.046 112.133 427.046 112.209 427.046 112.363V115.593C427.046 115.824 427.046 116.055 426.778 116.055ZM367.958 115.363H426.24V112.825H370.913L367.958 115.363Z" fill="#FF3B5B"/>
<path d="M9.66951 78.6773L8.86377 78.2159L11.8182 75.9086V47.7599L8.86377 45.4527L9.66951 44.9912L12.3553 47.5292C12.5344 47.5292 12.6239 47.6061 12.6239 47.7599V76.1393C12.6239 76.1393 12.5344 76.2163 12.3553 76.3701L9.66951 78.6773Z" fill="#FF3B5B"/>
<path d="M350.232 10.8442H274.223C274.044 10.8442 273.865 10.8442 273.686 10.8442L271 8.30621L271.538 7.84473L274.223 10.152H349.964L352.649 7.84473L353.455 8.30621L350.501 10.8442C350.322 10.8442 350.232 10.8442 350.232 10.8442Z" fill="#FF3B5B"/>
<path d="M192.306 8.30602L186.666 3.46074H139.664L133.755 8.30602L133.218 7.84454L139.127 2.76855C139.127 2.76855 139.217 2.76855 139.396 2.76855H186.935C187.114 2.76855 187.203 2.76855 187.203 2.76855L193.112 7.84454L192.306 8.30602Z" fill="#FF3B5B"/>
<path d="M293.562 121.131H246.023C245.844 121.131 245.754 121.054 245.754 120.9L239.845 116.055L240.382 115.363L246.291 120.208H293.293L298.933 115.363L299.739 116.055L293.83 120.9C293.83 121.054 293.741 121.131 293.562 121.131Z" fill="#FF3B5B"/>
<path d="M158.732 116.055L155.778 113.517H80.306L77.6202 116.055L76.8145 115.363L79.7689 112.825C79.9479 112.825 80.0374 112.825 80.0374 112.825H156.046C156.225 112.825 156.315 112.825 156.315 112.825L159.269 115.363L158.732 116.055Z" fill="#FF3B5B"/>
<path d="M9.40148 8.07471V66.91L3.49268 61.8341V11.3049V8.07471H9.40148Z" fill="#FF3B5B"/>
<path fill-rule="evenodd" clip-rule="evenodd" d="M9.40007 67.3715C9.22102 67.3715 9.04196 67.2946 8.86291 67.1408L3.22268 62.0648C3.04363 62.0648 2.9541 61.9879 2.9541 61.8341V8.07473C2.9541 7.844 3.22269 7.61328 3.49127 7.61328H9.40007C9.40007 7.61328 9.66865 7.844 9.66865 8.07473V66.9101C9.66865 67.0639 9.57913 67.1408 9.40007 67.1408C9.40007 67.2946 9.40007 67.3715 9.40007 67.3715ZM3.75985 61.6033L8.86291 65.9872V8.53617H4.02843L3.75985 61.6033Z" fill="#FF3B5B"/>
<path d="M420.598 78.6773L417.644 76.3701C417.644 76.2163 417.644 76.1393 417.644 76.1393V47.7599C417.644 47.6061 417.644 47.5292 417.644 47.5292L420.598 44.9912L421.136 45.4527L418.45 47.7599V75.9086L421.136 78.2159L420.598 78.6773Z" fill="#FF3B5B"/>
<path d="M426.777 61.8338L420.869 56.7578V115.593H426.777V112.363V61.8338Z" fill="#FF3B5B"/>
<path fill-rule="evenodd" clip-rule="evenodd" d="M426.778 116.055H420.869C420.601 116.055 420.601 115.825 420.601 115.594V56.7586C420.601 56.6048 420.69 56.5278 420.869 56.5278C421.048 56.5278 421.138 56.5278 421.138 56.5278L427.047 61.6038C427.226 61.6038 427.315 61.6807 427.315 61.8346L427.047 115.594C427.047 115.825 427.047 116.055 426.778 116.055ZM421.406 115.363H426.241V62.0653L421.406 57.6815V115.363Z" fill="#FF3B5B"/>
<path d="M406.902 41.9925H23.3667V41.3003H406.902V41.9925Z" fill="#FF3B5B"/>
<path d="M406.902 82.3689H23.3667V81.6768H406.902V82.3689Z" fill="#FF3B5B"/>
<path d="M0.538574 21.2265V31.6092C1.6129 32.7628 2.15007 33.2243 3.22439 34.1472V18.6885C2.15007 19.6114 1.6129 20.3035 0.538574 21.2265Z" fill="#FF3B5B"/>
<path fill-rule="evenodd" clip-rule="evenodd" d="M3.22298 34.608C3.22298 34.608 3.13345 34.5311 2.9544 34.3773L0 32.07C0 31.9162 0 31.7624 0 31.6086V21.2259C0 21.0721 0 20.9952 0 20.9952L2.9544 18.4572C3.13345 18.3033 3.31251 18.3033 3.49156 18.4572C3.67062 18.4572 3.76015 18.5341 3.76015 18.6879V34.1466C3.76015 34.3004 3.67062 34.4542 3.49156 34.608C3.49156 34.608 3.40204 34.608 3.22298 34.608ZM0.805744 31.6086L2.9544 33.2237V19.6108L0.805744 21.4566V31.6086Z" fill="#FF3B5B"/>
<path d="M0.538574 35.5312L3.22439 38.0693V39.2229L0.538574 36.6849V35.5312Z" fill="#FF3B5B"/>
<path fill-rule="evenodd" clip-rule="evenodd" d="M3.76015 40.1463L0 36.9162V34.6089L3.76015 37.839V40.1463Z" fill="#FF3B5B"/>
<path d="M0.538574 40.6069L3.22439 42.9142V44.0678L0.538574 41.7606V40.6069Z" fill="#FF3B5B"/>
<path fill-rule="evenodd" clip-rule="evenodd" d="M3.76015 44.9918L0 41.7616V39.6851L3.76015 42.9153V44.9918Z" fill="#FF3B5B"/>
<path fill-rule="evenodd" clip-rule="evenodd" d="M393.474 72.4481H363.661L378.702 50.2983L393.474 72.4481ZM366.884 71.0638H390.251L378.433 53.5285L366.884 71.0638Z" fill="#FF3B5B"/>
<path d="M379.508 65.757H377.628V58.6045H379.508V65.757Z" fill="#FF3B5B"/>
<path d="M379.508 68.756H377.628V67.3716H379.508V68.756Z" fill="#FF3B5B"/>
<path fill-rule="evenodd" clip-rule="evenodd" d="M66.3389 72.4481H36.7949L51.5669 50.2983L66.3389 72.4481ZM39.7493 71.0638H63.3845L51.5669 53.5285L39.7493 71.0638Z" fill="#FF3B5B"/>
<path d="M52.3737 65.757H50.7622V58.6045H52.3737V65.757Z" fill="#FF3B5B"/>
<path d="M52.3737 68.756H50.7622V67.3716H52.3737V68.756Z" fill="#FF3B5B"/>
<path d="M103.72 74L109.408 48.8H114.196L119.668 74H116.716L114.952 66.584H108.4L106.78 74H103.72ZM108.94 64.136H114.412L111.82 51.176H111.568L108.94 64.136ZM128.826 74C126.642 74 124.95 73.448 123.75 72.344C122.55 71.24 121.95 69.62 121.95 67.484V55.316C121.95 53.18 122.55 51.56 123.75 50.456C124.95 49.352 126.642 48.8 128.826 48.8H133.65V51.176H128.826C127.722 51.176 126.822 51.5 126.126 52.148C125.454 52.772 125.118 53.612 125.118 54.668V68.132C125.118 69.188 125.454 70.04 126.126 70.688C126.822 71.312 127.722 71.624 128.826 71.624H133.65V74H128.826ZM140.119 74V51.176H135.079V48.8H148.327V51.176H143.287V74H140.119ZM151.683 74V48.8H154.851V74H151.683ZM165.916 74.252C163.684 74.252 161.98 73.688 160.804 72.56C159.628 71.408 159.04 69.812 159.04 67.772V55.028C159.04 52.988 159.628 51.404 160.804 50.276C161.98 49.124 163.684 48.548 165.916 48.548C168.172 48.548 169.888 49.124 171.064 50.276C172.24 51.404 172.828 52.988 172.828 55.028V67.772C172.828 69.812 172.24 71.408 171.064 72.56C169.888 73.688 168.172 74.252 165.916 74.252ZM165.916 71.876C166.972 71.876 167.86 71.576 168.58 70.976C169.3 70.352 169.66 69.488 169.66 68.384V54.416C169.66 53.312 169.3 52.46 168.58 51.86C167.86 51.236 166.972 50.924 165.916 50.924C164.86 50.924 163.972 51.236 163.252 51.86C162.556 52.46 162.208 53.312 162.208 54.416V68.384C162.208 69.488 162.556 70.352 163.252 70.976C163.972 71.576 164.86 71.876 165.916 71.876ZM176.707 74V48.8H181.999L187.867 70.58V48.8H191.071V74H186.535L179.875 51.104V74H176.707ZM201.464 48.8H208.124C210.332 48.8 211.964 49.364 213.02 50.492C214.076 51.596 214.604 53.264 214.604 55.496C214.604 57.176 214.28 58.64 213.632 59.888C212.984 61.136 212.06 62 210.86 62.48L215.864 74H212.768L207.872 62.948H204.56V74H201.464V48.8ZM207.188 60.572C208.556 60.572 209.612 60.104 210.356 59.168C211.124 58.208 211.508 56.984 211.508 55.496C211.508 54.08 211.136 53.012 210.392 52.292C209.672 51.548 208.604 51.176 207.188 51.176H204.632V60.572H207.188ZM219.218 74V48.8H230.198V51.248H222.386V59.312H228.722V61.76H222.386V71.552H230.558V74H219.218ZM242.932 79.796C241.612 79.796 240.568 79.4 239.8 78.608C239.032 77.816 238.648 76.748 238.648 75.404V74.216C236.92 73.976 235.636 73.316 234.796 72.236C233.956 71.132 233.536 69.668 233.536 67.844V55.028C233.536 52.964 234.076 51.368 235.156 50.24C236.26 49.112 237.916 48.548 240.124 48.548C242.356 48.548 244.012 49.112 245.092 50.24C246.196 51.368 246.748 52.964 246.748 55.028V67.844C246.748 69.668 246.316 71.132 245.452 72.236C244.612 73.316 243.328 73.976 241.6 74.216V74.936C241.6 75.968 241.732 76.652 241.996 76.988C242.284 77.348 242.74 77.528 243.364 77.528H245.056V79.796H242.932ZM240.124 71.948C241.156 71.948 241.984 71.648 242.608 71.048C243.256 70.448 243.58 69.584 243.58 68.456V54.416C243.58 53.288 243.256 52.424 242.608 51.824C241.984 51.224 241.156 50.924 240.124 50.924C239.092 50.924 238.264 51.224 237.64 51.824C237.016 52.424 236.704 53.288 236.704 54.416V68.456C236.704 69.584 237.016 70.448 237.64 71.048C238.264 71.648 239.092 71.948 240.124 71.948ZM256.221 74.252C251.973 74.252 249.849 72.092 249.849 67.772V48.8H253.017V68.384C253.017 69.536 253.293 70.412 253.845 71.012C254.421 71.588 255.213 71.876 256.221 71.876C257.229 71.876 258.021 71.588 258.597 71.012C259.173 70.412 259.461 69.536 259.461 68.384V48.8H262.629V67.772C262.629 72.092 260.493 74.252 256.221 74.252ZM266.819 74V48.8H269.987V74H266.819ZM275.257 48.8H281.917C284.125 48.8 285.757 49.364 286.813 50.492C287.869 51.596 288.397 53.264 288.397 55.496C288.397 57.176 288.073 58.64 287.425 59.888C286.777 61.136 285.853 62 284.653 62.48L289.657 74H286.561L281.665 62.948H278.353V74H275.257V48.8ZM280.981 60.572C282.349 60.572 283.405 60.104 284.149 59.168C284.917 58.208 285.301 56.984 285.301 55.496C285.301 54.08 284.929 53.012 284.185 52.292C283.465 51.548 282.397 51.176 280.981 51.176H278.425V60.572H280.981ZM293.011 74V48.8H303.991V51.248H296.179V59.312H302.515V61.76H296.179V71.552H304.351V74H293.011ZM308.373 48.8H314.637C316.821 48.8 318.513 49.352 319.713 50.456C320.913 51.56 321.513 53.18 321.513 55.316V67.484C321.513 69.62 320.913 71.24 319.713 72.344C318.513 73.424 316.821 73.976 314.637 74H308.373V48.8ZM314.637 71.552C315.741 71.552 316.629 71.24 317.301 70.616C317.997 69.968 318.345 69.116 318.345 68.06V54.74C318.345 53.684 317.997 52.844 317.301 52.22C316.629 51.572 315.741 51.248 314.637 51.248H311.577V71.552H314.637Z" fill="white"/>
</svg>
